<svg width="13" height="15" viewBox="0 0 13 15" fill="rgb(77 168 246)" xmlns="http://www.w3.org/2000/svg">
<path fill-rule="evenodd" clip-rule="evenodd" d="M3.15217 2.19084C2.83507 2.19084 2.53095 2.34767 2.30672 2.62683C2.08249 2.90598 1.95652 3.2846 1.95652 3.67939V9.23664C1.95652 9.63143 2.08249 10.01 2.30672 10.2892C2.53095 10.5684 2.83507 10.7252 3.15217 10.7252H4.26812C4.53225 10.7252 4.74638 10.9918 4.74638 11.3206V12.353L6.81191 10.81C6.88624 10.7545 6.97129 10.7252 7.05797 10.7252H9.84783C10.1649 10.7252 10.4691 10.5684 10.6933 10.2892C10.9175 10.01 11.0435 9.63143 11.0435 9.23664V3.67939C11.0435 3.2846 10.9175 2.90598 10.6933 2.62683C10.4691 2.34767 10.1649 2.19084 9.84783 2.19084H3.15217ZM1.63036 1.78478C2.03397 1.28229 2.58138 1 3.15217 1H9.84783C10.4186 1 10.966 1.28229 11.3696 1.78478C11.7733 2.28726 12 2.96877 12 3.67939V9.23664C12 9.94726 11.7733 10.6288 11.3696 11.1313C10.966 11.6337 10.4186 11.916 9.84783 11.916H7.19044L4.51418 13.9151C4.36643 14.0255 4.18242 14.0284 4.03248 13.9227C3.88254 13.817 3.78985 13.6191 3.78985 13.4046V11.916H3.15217C2.58138 11.916 2.03397 11.6337 1.63036 11.1313C1.22675 10.6288 1 9.94726 1 9.23664V3.67939C1 2.96877 1.22675 2.28726 1.63036 1.78478Z" fill="rgb(77 168 246)" stroke="rgb(77 168 246)" stroke-width="0.3" stroke-linecap="round" stroke-linejoin="round"/>
</svg>
