<svg width="14" height="14" viewBox="0 0 14 14" fill="none" xmlns="http://www.w3.org/2000/svg">
<path d="M0 0H14V14H0" fill="#FE6502"/>
<path d="M4 9C2.6 9 2 9.6 2 11C2 11.4 2.6 12 4 12C4.4 12 5 11.4 5 11C5 9.6 4.4 9 4 9ZM2 5V7C3.31807 7.0256 4.57502 7.56061 5.50721 8.4928C6.4394 9.42499 6.9744 10.6819 7 12H9C9 10.1435 8.2625 8.36302 6.94975 7.05026C5.63699 5.73751 3.85652 5 2 5ZM2 2V4C3.0543 3.98657 4.10061 4.18432 5.07729 4.5816C6.05396 4.97889 6.94122 5.56764 7.68678 6.3132C8.43234 7.05876 9.02111 7.94603 9.4184 8.9227C9.81568 9.89937 10.0134 10.9457 10 12H12C12 9.34784 10.9464 6.80429 9.07107 4.92892C7.1957 3.05356 4.65216 2 2 2Z" fill="white"/>
</svg>
